<?xml version="1.0" encoding="UTF-8" standalone="no"?>
<!-- Created with Inkscape (http://www.inkscape.org/) -->

<svg
   version="1.1"
   id="svg1"
   width="50.666668"
   height="37.333332"
   viewBox="0 0 50.666668 37.333332"
   sodipodi:docname="upload_7j265eosuynrskls4i6btkepn5.pdf"
   xmlns:inkscape="http://www.inkscape.org/namespaces/inkscape"
   xmlns:sodipodi="http://sodipodi.sourceforge.net/DTD/sodipodi-0.dtd"
   xmlns="http://www.w3.org/2000/svg"
   xmlns:svg="http://www.w3.org/2000/svg">
  <defs
     id="defs1" />
  <sodipodi:namedview
     id="namedview1"
     pagecolor="#ffffff"
     bordercolor="#000000"
     borderopacity="0.25"
     inkscape:showpageshadow="2"
     inkscape:pageopacity="0.0"
     inkscape:pagecheckerboard="0"
     inkscape:deskcolor="#d1d1d1">
    <inkscape:page
       x="0"
       y="0"
       inkscape:label="1"
       id="page1"
       width="50.666668"
       height="37.333332"
       margin="0"
       bleed="0" />
  </sodipodi:namedview>
  <g
     id="g1"
     inkscape:groupmode="layer"
     inkscape:label="1">
    <path
       id="path1"
       d="M 0,22.790697 C 0,25.667715 2.306872,28 5.152542,28 h 19.966101 c 2.845671,0 5.152542,-2.332285 5.152542,-5.209303 v -0.819414 c 0,-0.460394 0.46475,-0.775389 0.892389,-0.604834 l 3.314755,1.322024 C 36.168919,23.362732 38,22.102938 38,20.265535 V 7.788822 C 38,5.936855 36.142109,4.676512 34.447056,5.378595 L 31.17153,6.73531 C 30.742785,6.912895 30.271185,6.597778 30.271185,6.133711 V 5.209301 C 30.271185,2.332283 27.964314,0 25.118643,0 H 5.152542 C 2.306871,0 0,2.332283 0,5.209301 Z M 20.621685,11.820709 c 1.583132,1.026766 1.583134,3.343796 2e-6,4.370564 l -5.651018,3.665066 c -1.732893,1.123895 -4.021955,-0.119843 -4.021955,-2.185286 v -7.330126 c 0,-2.065445 2.289059,-3.309179 4.021951,-2.185284 z"
       style="fill:#000000;fill-opacity:1;fill-rule:evenodd;stroke:none"
       transform="matrix(1.3333333,0,0,-1.3333333,0,37.333333)" />
  </g>
</svg>
