<?xml version="1.0" encoding="UTF-8"?>
<svg xmlns="http://www.w3.org/2000/svg" version="1.1" xmlns:inkscape="http://www.inkscape.org/namespaces/inkscape" xmlns:sodipodi="http://sodipodi.sourceforge.net/DTD/sodipodi-0.dtd" xmlns:svg="http://www.w3.org/2000/svg" viewBox="0 0 50.67 37.33">
  <!-- Generator: Adobe Illustrator 29.4.0, SVG Export Plug-In . SVG Version: 2.1.0 Build 152)  -->
  <defs>
    <style>
      .st0 {
        fill: #fff;
        fill-rule: evenodd;
      }
    </style>
  </defs>
  <g id="svg1" sodipodi:docname="upload_7j265eosuynrskls4i6btkepn5.pdf">
    <sodipodi:namedview id="namedview1" bordercolor="#000000" borderopacity="0.25" inkscape:deskcolor="#d1d1d1" inkscape:pagecheckerboard="0" inkscape:pageopacity="0.0" inkscape:showpageshadow="2" pagecolor="#ffffff">
      <inkscape:page id="page1" x="0" y="0" width="50.666668" height="37.333332" bleed="0" inkscape:label="1" margin="0"/>
    </sodipodi:namedview>
    <g id="g1" inkscape:groupmode="layer" inkscape:label="1">
      <path id="path1" class="st0" d="M0,6.95C0,3.11,3.08,0,6.87,0h26.62C37.29,0,40.36,3.11,40.36,6.95v1.09c0,.61.62,1.03,1.19.81l4.42-1.76c2.25-.9,4.7.78,4.7,3.23v16.64c0,2.47-2.48,4.15-4.74,3.21l-4.37-1.81c-.57-.24-1.2.18-1.2.8v1.23c0,3.84-3.08,6.95-6.87,6.95H6.87c-3.79,0-6.87-3.11-6.87-6.95V6.95ZM27.5,21.57c2.11-1.37,2.11-4.46,0-5.83l-7.53-4.89c-2.31-1.5-5.36.16-5.36,2.91v9.77c0,2.75,3.05,4.41,5.36,2.91l7.53-4.89Z"/>
    </g>
  </g>
</svg>